<?xml version="1.0" encoding="UTF-8"?>
<svg width="752pt" height="752pt" version="1.1" viewBox="0 0 752 752" xmlns="http://www.w3.org/2000/svg">
 <defs>
  <clipPath id="a">
   <path d="m139.21 168h473.58v416h-473.58z"/>
  </clipPath>
 </defs>
 <g clip-path="url(#a)">
  <path d="m262.37 583.21c6.5625 0 12.973-2.4492 18.086-7.168l66.59-61.473h204.23c33.922 0 61.512-27.59 61.512-61.512v-222.74c0-33.922-27.59-61.512-61.512-61.512h-350.56c-33.918 0-61.508 27.59-61.508 61.512v222.74c0 33.922 27.59 61.512 61.512 61.512h34.684v41.746c0 10.824 6.1562 20.246 16.07 24.59 3.5508 1.5469 7.2422 2.3047 10.895 2.3047zm288.91-392.21c21.68 0 39.312 17.633 39.312 39.312v222.74c0 21.68-17.633 39.312-39.312 39.312h-208.58c-2.7891 0-5.4766 1.0469-7.5312 2.9414l-69.777 64.414c-1.957 1.8125-3.9883 1.3086-5.0078 0.84375-1.0391-0.45312-2.7812-1.6094-2.7812-4.2539v-52.848c0-6.1289-4.9727-11.098-11.098-11.098h-45.785c-21.68 0-39.312-17.633-39.312-39.312v-222.74c0-21.68 17.633-39.312 39.312-39.312z" fill="#3b6af9"/>
 </g>
 <path d="m469.42 318.42c0 11.238 9.1133 20.352 20.352 20.352s20.348-9.1133 20.348-20.352-9.1094-20.348-20.348-20.348-20.352 9.1094-20.352 20.348" fill="#3b6af9"/>
 <path d="m335.3 318.42c0 11.238 9.1094 20.352 20.348 20.352 11.238 0 20.352-9.1133 20.352-20.352s-9.1133-20.348-20.352-20.348c-11.238 0-20.348 9.1094-20.348 20.348" fill="#3b6af9"/>
 <path d="m422.71 401.67c32.238 0 43.938-27.52 43.938-46.016 0-6.1289-4.9727-11.098-11.098-11.098-6.1289 0-11.098 4.9727-11.098 11.098-0.050781 3.918-1.3438 23.816-21.738 23.816-21.129 0-21.738-21.383-21.738-23.816 0-6.1289-4.9727-11.098-11.098-11.098-6.1289 0-11.098 4.9727-11.098 11.098-0.007812 18.5 11.691 46.016 43.93 46.016z" fill="#3b6af9"/>
</svg>
